<mxfile host="65bd71144e">
    <diagram id="6mOy798XpB74Yk2sk_v2" name="Page-1">
        <mxGraphModel dx="3602" dy="2658" grid="1" gridSize="10" guides="1" tooltips="1" connect="1" arrows="1" fold="1" page="1" pageScale="1" pageWidth="850" pageHeight="1100" math="0" shadow="0">
            <root>
                <mxCell id="0"/>
                <mxCell id="1" style="locked=1;" parent="0" visible="0"/>
                <mxCell id="4" value="Domain_1_container" style="locked=1;" parent="0"/>
                <mxCell id="5" value="&lt;font style=&quot;font-size: 30px;&quot;&gt;&lt;b style=&quot;&quot;&gt;domain_1&lt;/b&gt;&lt;/font&gt;" style="rounded=1;whiteSpace=wrap;html=1;verticalAlign=top;" parent="4" vertex="1">
                    <mxGeometry x="-550" y="-40" width="1580" height="880" as="geometry"/>
                </mxCell>
                <mxCell id="6" value="Domain_1_entities" style="locked=1;" parent="0"/>
                <mxCell id="8" value="group_1" style="rounded=1;html=1;fontSize=25;" parent="6" vertex="1">
                    <mxGeometry x="90" y="240" width="160" height="40" as="geometry"/>
                </mxCell>
                <mxCell id="22" style="edgeStyle=elbowEdgeStyle;rounded=1;elbow=vertical;html=1;entryX=0.25;entryY=1;entryDx=0;entryDy=0;fontSize=20;fillColor=#a20025;strokeColor=#6F0000;" parent="6" source="10" target="8" edge="1">
                    <mxGeometry relative="1" as="geometry">
                        <Array as="points">
                            <mxPoint x="10" y="320"/>
                        </Array>
                    </mxGeometry>
                </mxCell>
                <mxCell id="10" value="group_12" style="rounded=1;whiteSpace=wrap;html=1;fontSize=25;" parent="6" vertex="1">
                    <mxGeometry x="-230" y="370" width="160" height="40" as="geometry"/>
                </mxCell>
                <mxCell id="20" style="edgeStyle=elbowEdgeStyle;html=1;entryX=0.5;entryY=1;entryDx=0;entryDy=0;fontSize=20;elbow=vertical;fillColor=#1ba1e2;strokeColor=#006EAF;" parent="6" source="11" target="10" edge="1">
                    <mxGeometry relative="1" as="geometry"/>
                </mxCell>
                <mxCell id="11" value="channel_2" style="rounded=1;html=1;fontSize=25;" parent="6" vertex="1">
                    <mxGeometry x="-390" y="510" width="160" height="40" as="geometry"/>
                </mxCell>
                <mxCell id="21" style="edgeStyle=elbowEdgeStyle;rounded=1;elbow=vertical;html=1;fontSize=20;fillColor=#1ba1e2;strokeColor=#006EAF;" parent="6" source="12" target="10" edge="1">
                    <mxGeometry relative="1" as="geometry"/>
                </mxCell>
                <mxCell id="12" value="channel_3" style="rounded=1;html=1;fontSize=25;" parent="6" vertex="1">
                    <mxGeometry x="-70" y="510" width="160" height="40" as="geometry"/>
                </mxCell>
                <mxCell id="23" style="edgeStyle=elbowEdgeStyle;rounded=1;elbow=vertical;html=1;fontSize=20;fillColor=#1ba1e2;strokeColor=#006EAF;entryX=0.75;entryY=1;entryDx=0;entryDy=0;" parent="6" source="14" target="8" edge="1">
                    <mxGeometry relative="1" as="geometry">
                        <mxPoint x="170" y="280" as="targetPoint"/>
                    </mxGeometry>
                </mxCell>
                <mxCell id="14" value="channel_1" style="rounded=1;html=1;fontSize=25;" parent="6" vertex="1">
                    <mxGeometry x="410" y="360" width="160" height="40" as="geometry"/>
                </mxCell>
                <mxCell id="18" style="edgeStyle=none;html=1;entryX=0.5;entryY=1;entryDx=0;entryDy=0;fontSize=20;fillColor=#6a00ff;strokeColor=#3700CC;" parent="6" source="15" target="14" edge="1">
                    <mxGeometry relative="1" as="geometry">
                        <Array as="points">
                            <mxPoint x="330" y="450"/>
                            <mxPoint x="490" y="450"/>
                        </Array>
                    </mxGeometry>
                </mxCell>
                <mxCell id="15" value="thing_11" style="rounded=1;html=1;fontSize=25;" parent="6" vertex="1">
                    <mxGeometry x="250" y="500" width="160" height="40" as="geometry"/>
                </mxCell>
                <mxCell id="19" style="edgeStyle=none;html=1;entryX=0.5;entryY=1;entryDx=0;entryDy=0;fontSize=20;fillColor=#6a00ff;strokeColor=#3700CC;" parent="6" source="16" target="14" edge="1">
                    <mxGeometry relative="1" as="geometry">
                        <Array as="points">
                            <mxPoint x="650" y="450"/>
                            <mxPoint x="490" y="450"/>
                        </Array>
                    </mxGeometry>
                </mxCell>
                <mxCell id="16" value="thing_12" style="rounded=1;html=1;fontSize=25;" parent="6" vertex="1">
                    <mxGeometry x="570" y="500" width="160" height="40" as="geometry"/>
                </mxCell>
                <mxCell id="29" style="edgeStyle=elbowEdgeStyle;rounded=1;elbow=vertical;html=1;entryX=0.5;entryY=1;entryDx=0;entryDy=0;fontSize=20;" parent="6" source="25" target="11" edge="1">
                    <mxGeometry relative="1" as="geometry"/>
                </mxCell>
                <mxCell id="25" value="thing_21" style="rounded=1;html=1;fontSize=25;" parent="6" vertex="1">
                    <mxGeometry x="-510" y="630" width="160" height="40" as="geometry"/>
                </mxCell>
                <mxCell id="30" style="edgeStyle=elbowEdgeStyle;rounded=1;elbow=vertical;html=1;entryX=0.5;entryY=1;entryDx=0;entryDy=0;fontSize=20;" parent="6" source="26" target="11" edge="1">
                    <mxGeometry relative="1" as="geometry"/>
                </mxCell>
                <mxCell id="26" value="thing_22" style="rounded=1;html=1;fontSize=25;" parent="6" vertex="1">
                    <mxGeometry x="-270" y="630" width="160" height="40" as="geometry"/>
                </mxCell>
                <mxCell id="28" style="edgeStyle=elbowEdgeStyle;rounded=1;elbow=vertical;html=1;fontSize=20;fillColor=#6a00ff;strokeColor=#3700CC;" parent="6" source="27" target="12" edge="1">
                    <mxGeometry relative="1" as="geometry"/>
                </mxCell>
                <mxCell id="27" value="thing_31" style="rounded=1;html=1;fontSize=25;" parent="6" vertex="1">
                    <mxGeometry x="-70" y="630" width="160" height="40" as="geometry"/>
                </mxCell>
                <mxCell id="31" style="edgeStyle=elbowEdgeStyle;rounded=1;elbow=vertical;html=1;entryX=0.5;entryY=1;entryDx=0;entryDy=0;fontSize=20;fillColor=#6a00ff;strokeColor=#3700CC;" parent="6" edge="1">
                    <mxGeometry relative="1" as="geometry">
                        <mxPoint x="-430" y="630" as="sourcePoint"/>
                        <mxPoint x="-310" y="550" as="targetPoint"/>
                    </mxGeometry>
                </mxCell>
                <mxCell id="32" style="edgeStyle=elbowEdgeStyle;rounded=1;elbow=vertical;html=1;entryX=0.5;entryY=1;entryDx=0;entryDy=0;fontSize=20;fillColor=#6a00ff;strokeColor=#3700CC;" parent="6" edge="1">
                    <mxGeometry relative="1" as="geometry">
                        <mxPoint x="-190" y="630" as="sourcePoint"/>
                        <mxPoint x="-310" y="550" as="targetPoint"/>
                    </mxGeometry>
                </mxCell>
                <mxCell id="61" value="group_2" style="rounded=1;html=1;fontSize=25;" parent="6" vertex="1">
                    <mxGeometry x="840" y="240" width="160" height="40" as="geometry"/>
                </mxCell>
                <mxCell id="64" style="edgeStyle=elbowEdgeStyle;rounded=1;elbow=vertical;html=1;strokeColor=#006EAF;fontSize=25;startArrow=none;startFill=0;endArrow=classic;endFill=1;fillColor=#1ba1e2;" parent="6" source="63" target="61" edge="1">
                    <mxGeometry relative="1" as="geometry"/>
                </mxCell>
                <mxCell id="63" value="channel_4" style="rounded=1;html=1;fontSize=25;" parent="6" vertex="1">
                    <mxGeometry x="840" y="340" width="160" height="40" as="geometry"/>
                </mxCell>
                <mxCell id="66" style="edgeStyle=elbowEdgeStyle;rounded=1;elbow=vertical;html=1;entryX=0.5;entryY=1;entryDx=0;entryDy=0;strokeColor=#3700CC;fontSize=25;startArrow=none;startFill=0;endArrow=classic;endFill=1;fillColor=#6a00ff;" parent="6" source="65" target="63" edge="1">
                    <mxGeometry relative="1" as="geometry"/>
                </mxCell>
                <mxCell id="65" value="thing_41" style="rounded=1;html=1;fontSize=25;" parent="6" vertex="1">
                    <mxGeometry x="840" y="440" width="160" height="40" as="geometry"/>
                </mxCell>
                <mxCell id="39" value="Domain_1_Users" style="locked=1;" parent="0"/>
                <mxCell id="49" style="edgeStyle=orthogonalEdgeStyle;rounded=1;elbow=vertical;html=1;entryX=0.5;entryY=0;entryDx=0;entryDy=0;dashed=1;dashPattern=8 8;strokeColor=#001DBC;fontSize=25;startArrow=none;startFill=0;endArrow=none;endFill=0;fillColor=#0050ef;strokeWidth=4;" parent="39" source="40" target="8" edge="1">
                    <mxGeometry relative="1" as="geometry"/>
                </mxCell>
                <mxCell id="50" style="edgeStyle=orthogonalEdgeStyle;rounded=1;elbow=vertical;html=1;entryX=0.25;entryY=0;entryDx=0;entryDy=0;dashed=1;dashPattern=8 8;strokeColor=#001DBC;fontSize=25;startArrow=none;startFill=0;endArrow=none;endFill=0;fillColor=#0050ef;strokeWidth=4;" parent="39" source="40" target="10" edge="1">
                    <mxGeometry relative="1" as="geometry">
                        <Array as="points">
                            <mxPoint x="170" y="190"/>
                            <mxPoint x="-190" y="190"/>
                        </Array>
                    </mxGeometry>
                </mxCell>
                <mxCell id="51" style="edgeStyle=orthogonalEdgeStyle;rounded=1;elbow=vertical;html=1;entryX=0.25;entryY=0;entryDx=0;entryDy=0;dashed=1;dashPattern=8 8;strokeColor=#001DBC;fontSize=25;startArrow=none;startFill=0;endArrow=none;endFill=0;fillColor=#0050ef;strokeWidth=4;" parent="39" source="40" target="11" edge="1">
                    <mxGeometry relative="1" as="geometry">
                        <Array as="points">
                            <mxPoint x="170" y="190"/>
                            <mxPoint x="-350" y="190"/>
                        </Array>
                    </mxGeometry>
                </mxCell>
                <mxCell id="52" style="edgeStyle=orthogonalEdgeStyle;rounded=1;elbow=vertical;html=1;entryX=0.25;entryY=0;entryDx=0;entryDy=0;dashed=1;dashPattern=8 8;strokeColor=#001DBC;fontSize=25;startArrow=none;startFill=0;endArrow=none;endFill=0;fillColor=#0050ef;strokeWidth=4;" parent="39" source="40" target="25" edge="1">
                    <mxGeometry relative="1" as="geometry">
                        <Array as="points">
                            <mxPoint x="170" y="190"/>
                            <mxPoint x="-470" y="190"/>
                        </Array>
                    </mxGeometry>
                </mxCell>
                <mxCell id="90" value="&lt;font style=&quot;font-size: 25px;&quot;&gt;Domain Editor&lt;/font&gt;" style="edgeLabel;html=1;align=center;verticalAlign=middle;resizable=0;points=[];" parent="52" vertex="1" connectable="0">
                    <mxGeometry x="-0.1858" relative="1" as="geometry">
                        <mxPoint as="offset"/>
                    </mxGeometry>
                </mxCell>
                <mxCell id="53" style="edgeStyle=orthogonalEdgeStyle;rounded=1;elbow=vertical;html=1;entryX=1;entryY=0.5;entryDx=0;entryDy=0;dashed=1;dashPattern=8 8;strokeColor=#001DBC;fontSize=25;startArrow=none;startFill=0;endArrow=none;endFill=0;fillColor=#0050ef;strokeWidth=4;" parent="39" source="40" target="12" edge="1">
                    <mxGeometry relative="1" as="geometry">
                        <Array as="points">
                            <mxPoint x="170" y="190"/>
                            <mxPoint x="60" y="190"/>
                            <mxPoint x="60" y="380"/>
                            <mxPoint x="140" y="380"/>
                            <mxPoint x="140" y="530"/>
                        </Array>
                    </mxGeometry>
                </mxCell>
                <mxCell id="54" style="edgeStyle=orthogonalEdgeStyle;rounded=1;elbow=vertical;html=1;entryX=0.5;entryY=1;entryDx=0;entryDy=0;dashed=1;dashPattern=8 8;strokeColor=#001DBC;fontSize=25;startArrow=none;startFill=0;endArrow=none;endFill=0;fillColor=#0050ef;strokeWidth=4;" parent="39" source="40" target="26" edge="1">
                    <mxGeometry relative="1" as="geometry">
                        <Array as="points">
                            <mxPoint x="170" y="190"/>
                            <mxPoint x="60" y="190"/>
                            <mxPoint x="60" y="380"/>
                            <mxPoint x="140" y="380"/>
                            <mxPoint x="140" y="710"/>
                            <mxPoint x="-190" y="710"/>
                        </Array>
                    </mxGeometry>
                </mxCell>
                <mxCell id="55" style="edgeStyle=orthogonalEdgeStyle;rounded=1;elbow=vertical;html=1;entryX=1;entryY=0.5;entryDx=0;entryDy=0;dashed=1;dashPattern=8 8;strokeColor=#001DBC;fontSize=25;startArrow=none;startFill=0;endArrow=none;endFill=0;fillColor=#0050ef;strokeWidth=4;" parent="39" source="40" target="27" edge="1">
                    <mxGeometry relative="1" as="geometry">
                        <Array as="points">
                            <mxPoint x="170" y="190"/>
                            <mxPoint x="60" y="190"/>
                            <mxPoint x="60" y="380"/>
                            <mxPoint x="140" y="380"/>
                            <mxPoint x="140" y="650"/>
                        </Array>
                    </mxGeometry>
                </mxCell>
                <mxCell id="58" style="edgeStyle=orthogonalEdgeStyle;rounded=1;elbow=vertical;html=1;entryX=0.75;entryY=0;entryDx=0;entryDy=0;dashed=1;dashPattern=8 8;strokeColor=#001DBC;fontSize=25;startArrow=none;startFill=0;endArrow=none;endFill=0;fillColor=#0050ef;strokeWidth=4;" parent="39" source="40" target="16" edge="1">
                    <mxGeometry relative="1" as="geometry">
                        <Array as="points">
                            <mxPoint x="170" y="190"/>
                            <mxPoint x="690" y="190"/>
                        </Array>
                    </mxGeometry>
                </mxCell>
                <mxCell id="59" style="edgeStyle=orthogonalEdgeStyle;rounded=1;elbow=vertical;html=1;entryX=0.75;entryY=0;entryDx=0;entryDy=0;dashed=1;dashPattern=8 8;strokeColor=#001DBC;fontSize=25;startArrow=none;startFill=0;endArrow=none;endFill=0;fillColor=#0050ef;strokeWidth=4;" parent="39" source="40" target="14" edge="1">
                    <mxGeometry relative="1" as="geometry">
                        <Array as="points">
                            <mxPoint x="170" y="190"/>
                            <mxPoint x="530" y="190"/>
                        </Array>
                    </mxGeometry>
                </mxCell>
                <mxCell id="60" style="edgeStyle=orthogonalEdgeStyle;rounded=1;elbow=vertical;html=1;entryX=0.25;entryY=0;entryDx=0;entryDy=0;dashed=1;dashPattern=8 8;strokeColor=#001DBC;fontSize=25;startArrow=none;startFill=0;endArrow=none;endFill=0;fillColor=#0050ef;strokeWidth=4;" parent="39" source="40" target="15" edge="1">
                    <mxGeometry relative="1" as="geometry">
                        <Array as="points">
                            <mxPoint x="170" y="190"/>
                            <mxPoint x="290" y="190"/>
                        </Array>
                    </mxGeometry>
                </mxCell>
                <mxCell id="69" style="edgeStyle=orthogonalEdgeStyle;rounded=1;elbow=vertical;html=1;entryX=0;entryY=0.5;entryDx=0;entryDy=0;dashed=1;dashPattern=8 8;strokeColor=#001DBC;fontSize=25;startArrow=none;startFill=0;endArrow=none;endFill=0;fillColor=#0050ef;strokeWidth=4;" parent="39" source="40" target="63" edge="1">
                    <mxGeometry relative="1" as="geometry">
                        <Array as="points">
                            <mxPoint x="170" y="190"/>
                            <mxPoint x="780" y="190"/>
                            <mxPoint x="780" y="360"/>
                        </Array>
                    </mxGeometry>
                </mxCell>
                <mxCell id="70" style="edgeStyle=orthogonalEdgeStyle;rounded=1;html=1;entryX=0;entryY=0.5;entryDx=0;entryDy=0;dashed=1;dashPattern=8 8;strokeColor=#001DBC;fontSize=25;startArrow=none;startFill=0;endArrow=none;endFill=0;fillColor=#0050ef;strokeWidth=4;" parent="39" source="40" target="65" edge="1">
                    <mxGeometry relative="1" as="geometry">
                        <Array as="points">
                            <mxPoint x="170" y="190"/>
                            <mxPoint x="780" y="190"/>
                            <mxPoint x="780" y="460"/>
                        </Array>
                    </mxGeometry>
                </mxCell>
                <mxCell id="72" style="edgeStyle=orthogonalEdgeStyle;rounded=1;html=1;strokeColor=#001DBC;fontSize=25;startArrow=none;startFill=0;endArrow=none;endFill=0;fillColor=#0050ef;dashed=1;dashPattern=8 8;entryX=0.5;entryY=0;entryDx=0;entryDy=0;strokeWidth=4;" parent="39" source="40" target="61" edge="1">
                    <mxGeometry relative="1" as="geometry">
                        <mxPoint x="920" y="230" as="targetPoint"/>
                        <Array as="points">
                            <mxPoint x="170" y="190"/>
                            <mxPoint x="920" y="190"/>
                        </Array>
                    </mxGeometry>
                </mxCell>
                <mxCell id="91" value="Domain Editor" style="edgeLabel;html=1;align=center;verticalAlign=middle;resizable=0;points=[];fontSize=25;" parent="72" vertex="1" connectable="0">
                    <mxGeometry x="-0.2376" y="2" relative="1" as="geometry">
                        <mxPoint as="offset"/>
                    </mxGeometry>
                </mxCell>
                <mxCell id="40" value="&lt;font style=&quot;font-size: 25px;&quot;&gt;&lt;b&gt;&lt;u&gt;Domain Editor&lt;/u&gt;&lt;/b&gt;&lt;br&gt;&lt;br&gt;user_2&lt;/font&gt;" style="rounded=1;html=1;fontSize=25;verticalAlign=top;" parent="39" vertex="1">
                    <mxGeometry x="80" y="40" width="180" height="100" as="geometry"/>
                </mxCell>
                <mxCell id="76" value="Legends" style="locked=1;" parent="0"/>
                <mxCell id="77" value="Legends" style="text;html=1;strokeColor=none;fillColor=none;align=center;verticalAlign=middle;whiteSpace=wrap;rounded=0;fontSize=25;" parent="76" vertex="1">
                    <mxGeometry x="555" y="620" width="150" height="30" as="geometry"/>
                </mxCell>
                <mxCell id="80" value="" style="endArrow=none;startArrow=classic;html=1;rounded=1;strokeColor=#6F0000;fontSize=25;startFill=1;endFill=0;fillColor=#a20025;" parent="76" edge="1">
                    <mxGeometry width="50" height="50" relative="1" as="geometry">
                        <mxPoint x="570" y="670" as="sourcePoint"/>
                        <mxPoint x="450" y="670" as="targetPoint"/>
                    </mxGeometry>
                </mxCell>
                <mxCell id="81" value="" style="endArrow=none;startArrow=classic;html=1;rounded=1;strokeColor=#006EAF;fontSize=25;startFill=1;endFill=0;fillColor=#1ba1e2;" parent="76" edge="1">
                    <mxGeometry width="50" height="50" relative="1" as="geometry">
                        <mxPoint x="570" y="710" as="sourcePoint"/>
                        <mxPoint x="450" y="710" as="targetPoint"/>
                    </mxGeometry>
                </mxCell>
                <mxCell id="82" value="" style="endArrow=none;startArrow=classic;html=1;rounded=1;strokeColor=#3700CC;fontSize=25;startFill=1;endFill=0;fillColor=#6a00ff;" parent="76" edge="1">
                    <mxGeometry width="50" height="50" relative="1" as="geometry">
                        <mxPoint x="570" y="750" as="sourcePoint"/>
                        <mxPoint x="450" y="750" as="targetPoint"/>
                    </mxGeometry>
                </mxCell>
                <mxCell id="84" value="" style="endArrow=none;startArrow=none;html=1;rounded=1;dashed=1;strokeColor=#001DBC;fontSize=25;startFill=0;endFill=0;fillColor=#0050ef;strokeWidth=4;" parent="76" edge="1">
                    <mxGeometry width="50" height="50" relative="1" as="geometry">
                        <mxPoint x="570" y="790" as="sourcePoint"/>
                        <mxPoint x="450" y="790" as="targetPoint"/>
                    </mxGeometry>
                </mxCell>
                <mxCell id="86" value="Group - Group Relation" style="text;html=1;strokeColor=none;fillColor=none;align=left;verticalAlign=middle;whiteSpace=wrap;rounded=0;fontSize=25;" parent="76" vertex="1">
                    <mxGeometry x="580" y="650" width="300" height="30" as="geometry"/>
                </mxCell>
                <mxCell id="87" value="Channel- Group Relation" style="text;html=1;strokeColor=none;fillColor=none;align=left;verticalAlign=middle;whiteSpace=wrap;rounded=0;fontSize=25;" parent="76" vertex="1">
                    <mxGeometry x="580" y="690" width="300" height="30" as="geometry"/>
                </mxCell>
                <mxCell id="88" value="Thing - Channel Relation" style="text;html=1;strokeColor=none;fillColor=none;align=left;verticalAlign=middle;whiteSpace=wrap;rounded=0;fontSize=25;" parent="76" vertex="1">
                    <mxGeometry x="580" y="730" width="300" height="30" as="geometry"/>
                </mxCell>
                <mxCell id="89" value="Domain Editor Relation" style="text;html=1;strokeColor=none;fillColor=none;align=left;verticalAlign=middle;whiteSpace=wrap;rounded=0;fontSize=25;" parent="76" vertex="1">
                    <mxGeometry x="585" y="770" width="395" height="30" as="geometry"/>
                </mxCell>
            </root>
        </mxGraphModel>
    </diagram>
</mxfile>